<?xml version="1.0" encoding="utf-8"?>
<!-- Generator: Adobe Illustrator 25.2.0, SVG Export Plug-In . SVG Version: 6.00 Build 0)  -->
<svg version="1.1" id="Layer_1" xmlns="http://www.w3.org/2000/svg" xmlns:xlink="http://www.w3.org/1999/xlink" x="0px" y="0px"
	 viewBox="0 0 37 37" style="enable-background:new 0 0 37 37;" xml:space="preserve">
<style type="text/css">
	.st0{fill:#EE0000;}
	.st1{fill:#FFFFFF;}
</style>
<g>
	<path d="M27.5,0.5h-18c-4.97,0-9,4.03-9,9v18c0,4.97,4.03,9,9,9h18c4.97,0,9-4.03,9-9v-18C36.5,4.53,32.47,0.5,27.5,0.5L27.5,0.5z"
		/>
	<path class="st0" d="M16.5,18.12c-1.72,0-3.12-1.4-3.12-3.12s1.4-3.12,3.12-3.12s3.12,1.4,3.12,3.12S18.22,18.12,16.5,18.12z
		 M16.5,13.12c-1.03,0-1.88,0.84-1.88,1.88s0.84,1.88,1.88,1.88s1.88-0.84,1.88-1.88S17.53,13.12,16.5,13.12z"/>
	<path class="st1" d="M12.94,11.06l-2-2c-0.08-0.08-0.18-0.13-0.29-0.15c-0.03-0.01-0.05-0.01-0.07-0.01
		c-0.11-0.01-0.22-0.01-0.32,0.03c0,0,0,0,0,0c-0.07,0.03-0.13,0.07-0.18,0.12c-0.01,0.01-0.01,0.01-0.02,0.01l-2,2
		c-0.24,0.24-0.24,0.64,0,0.88c0.12,0.12,0.28,0.18,0.44,0.18s0.32-0.06,0.44-0.18l0.93-0.93V22.5c0,0.35,0.28,0.62,0.62,0.62
		s0.62-0.28,0.62-0.62V11.01l0.93,0.93c0.24,0.24,0.64,0.24,0.88,0C13.19,11.7,13.19,11.3,12.94,11.06z"/>
	<path class="st0" d="M22.5,18.12c-0.34,0-0.62-0.28-0.62-0.62v-5c0-0.35,0.28-0.62,0.62-0.62s0.62,0.28,0.62,0.62v5
		C23.12,17.85,22.84,18.12,22.5,18.12z"/>
	<path class="st0" d="M20.5,25.12c-1.72,0-3.12-1.4-3.12-3.12s1.4-3.12,3.12-3.12s3.12,1.4,3.12,3.12S22.22,25.12,20.5,25.12z
		 M20.5,20.12c-1.03,0-1.88,0.84-1.88,1.88s0.84,1.88,1.88,1.88s1.88-0.84,1.88-1.88S21.53,20.12,20.5,20.12z"/>
	<path class="st1" d="M28.94,25.06c-0.24-0.24-0.64-0.24-0.88,0l-0.93,0.93V12.5c0-0.35-0.28-0.62-0.62-0.62s-0.62,0.28-0.62,0.62
		v13.49l-0.93-0.93c-0.24-0.24-0.64-0.24-0.88,0c-0.24,0.24-0.24,0.64,0,0.88l2,2c0.06,0.06,0.13,0.11,0.21,0.14
		c0.08,0.03,0.16,0.05,0.24,0.05c0.08,0,0.16-0.02,0.24-0.05c0,0,0,0,0,0c0.07-0.03,0.13-0.07,0.18-0.12
		c0.01-0.01,0.01-0.01,0.02-0.01l2-2C29.19,25.7,29.19,25.3,28.94,25.06z"/>
	<path class="st0" d="M14.5,25.12c-0.34,0-0.62-0.28-0.62-0.62v-5c0-0.35,0.28-0.62,0.62-0.62s0.62,0.28,0.62,0.62v5
		C15.12,24.85,14.84,25.12,14.5,25.12z"/>
	<path class="st0" d="M26.5,18.12c-0.34,0-0.62-0.28-0.62-0.62v-5c0-0.35,0.28-0.62,0.62-0.62s0.62,0.28,0.62,0.62v5
		C27.12,17.85,26.84,18.12,26.5,18.12z"/>
	<path class="st0" d="M10.5,25.12c-0.34,0-0.62-0.28-0.62-0.62v-5c0-0.35,0.28-0.62,0.62-0.62s0.62,0.28,0.62,0.62v5
		C11.12,24.85,10.84,25.12,10.5,25.12z"/>
</g>
</svg>